<svg id="Layer_1" data-name="Layer 1" xmlns="http://www.w3.org/2000/svg" viewBox="0 0 114.84 114.84"><defs><style>.cls-1{fill:#fff;}</style></defs><title>freccia_up</title><path class="cls-1" d="M66.79,92.11H48.06c-1.83,0-3.64-1.3-3.64-3.13V53.11H37.31a3,3,0,0,1-2.92-1.64,3.43,3.43,0,0,1,.52-3.7C41.61,39.71,48.32,31.7,55,23.65a2.92,2.92,0,0,1,2.4-1.11,3,3,0,0,1,2.4,1.15L79.94,47.85a3.3,3.3,0,0,1,.52,3.62,3,3,0,0,1-2.92,1.64H70.42V89C70.42,90.81,68.61,92.11,66.79,92.11ZM57.3,24.56a1,1,0,0,0-.74.41L36.44,49.13a1.31,1.31,0,0,0-.24,1.49c.14.3.45.49,1.11.49h9.11V89c0,.71.92,1.13,1.64,1.13H66.79c.71,0,1.64-.42,1.64-1.13V51.11h9.11c.66,0,1-.19,1.11-.49A1.45,1.45,0,0,0,78.4,49h0C71.7,41,65,33,58.29,24.93a.92.92,0,0,0-.8-.39l-.07,0H57.3Z"/><path class="cls-1" d="M57.42,114.84a57.42,57.42,0,1,1,57.42-57.42A57.49,57.49,0,0,1,57.42,114.84ZM57.42,2a55.42,55.42,0,1,0,55.42,55.42A55.48,55.48,0,0,0,57.42,2Zm0,103.82a48.39,48.39,0,1,1,48.39-48.4A48.45,48.45,0,0,1,57.42,105.82Zm0-94.79a46.39,46.39,0,1,0,46.39,46.39A46.44,46.44,0,0,0,57.42,11Z"/></svg>